# xmcd CD database file
#
# Track frame offsets:
#	150
#	21060
#	36675
#	64079
#	76280
#	99537
#	117579
#	140818
#	158117
#	187547
#	208424
#	229313
#	244640
#
# Disc length: 3649 seconds
#
# Revision: 0
# Processed by: cddbd v1.5.2PL0 Copyright (c) Steve Scherf et al.
# Submitted via: CDex 1.51
#
DISCID=b70e3f0d
DTITLE=NICK HOLT - Chicago Blues Session Volume 37(You Better Watch Yourself)
DYEAR=00000
DGENRE=Blues
TTITLE0=The Town I Live In
TTITLE1=Yak, Yak
TTITLE2=You Better Watch Yourself
TTITLE3=Need Some Good Lovin'
TTITLE4=One Room Country Shack
TTITLE5=Yo Baby, You Call Me
TTITLE6=Standing In My Doorway
TTITLE7=Change My Mind
TTITLE8=Got To Be Some Changes
TTITLE9=Walk Up This Morning
TTITLE10=Sittin' In My Bedroom
TTITLE11=When You Got A Headache
TTITLE12=As The Years Go Passing By
EXTD=YEAR: 00000
EXTT0=
EXTT1=
EXTT2=
EXTT3=
EXTT4=
EXTT5=
EXTT6=
EXTT7=
EXTT8=
EXTT9=
EXTT10=
EXTT11=
EXTT12=
PLAYORDER=
